<svg width="24" height="24" viewBox="0 0 24 24" fill="none" xmlns="http://www.w3.org/2000/svg">
<mask id="mask0_426_82" style="mask-type:alpha" maskUnits="userSpaceOnUse" x="0" y="0" width="24" height="24">
<rect width="24" height="24" fill="#D9D9D9"/>
</mask>
<g mask="url(#mask0_426_82)">
<path d="M5.30775 21.5C4.80258 21.5 4.375 21.325 4.025 20.975C3.675 20.625 3.5 20.1974 3.5 19.6923V8.30775C3.5 7.80258 3.675 7.375 4.025 7.025C4.375 6.675 4.80258 6.5 5.30775 6.5H7.5C7.5 5.25133 7.93783 4.18917 8.8135 3.3135C9.68917 2.43783 10.7513 2 12 2C13.2487 2 14.3108 2.43783 15.1865 3.3135C16.0622 4.18917 16.5 5.25133 16.5 6.5H18.6923C19.1974 6.5 19.625 6.675 19.975 7.025C20.325 7.375 20.5 7.80258 20.5 8.30775V19.6923C20.5 20.1974 20.325 20.625 19.975 20.975C19.625 21.325 19.1974 21.5 18.6923 21.5H5.30775ZM15.1865 12.1865C16.0622 11.3108 16.5 10.2487 16.5 9H15C15 9.83333 14.7083 10.5417 14.125 11.125C13.5417 11.7083 12.8333 12 12 12C11.1667 12 10.4583 11.7083 9.875 11.125C9.29167 10.5417 9 9.83333 9 9H7.5C7.5 10.2487 7.93783 11.3108 8.8135 12.1865C9.68917 13.0622 10.7513 13.5 12 13.5C13.2487 13.5 14.3108 13.0622 15.1865 12.1865ZM9 6.5H15C15 5.66667 14.7083 4.95833 14.125 4.375C13.5417 3.79167 12.8333 3.5 12 3.5C11.1667 3.5 10.4583 3.79167 9.875 4.375C9.29167 4.95833 9 5.66667 9 6.5Z" fill="#C281FF"/>
</g>
</svg>
