<svg width="24" height="24" viewBox="0 0 24 24" fill="none" xmlns="http://www.w3.org/2000/svg">
<mask id="mask0_426_76" style="mask-type:alpha" maskUnits="userSpaceOnUse" x="0" y="0" width="24" height="24">
<rect width="24" height="24" fill="#D9D9D9"/>
</mask>
<g mask="url(#mask0_426_76)">
<path d="M4.49996 20.5V11.2403L2.63271 12.673L1.73071 11.477L4.49996 9.35001V6.48076H5.99996V8.20001L12 3.62501L22.2692 11.477L21.3672 12.6578L19.5 11.2403V20.5H13.1922V14.6153H10.8077V20.5H4.49996ZM4.49996 5.38476C4.49996 4.66676 4.74196 4.05459 5.22596 3.54826C5.70996 3.04176 6.3398 2.78851 7.11546 2.78851C7.47563 2.78851 7.75155 2.68309 7.94321 2.47226C8.13488 2.26126 8.23071 2.00126 8.23071 1.69226H9.73071C9.73071 2.41026 9.48871 3.02251 9.00471 3.52901C8.52071 4.03534 7.89096 4.28851 7.11546 4.28851C6.75513 4.28851 6.47913 4.39393 6.28746 4.60476C6.0958 4.81576 5.99996 5.07576 5.99996 5.38476H4.49996Z" fill="#FFAA00"/>
</g>
</svg>
