<svg enable-background="new 0 0 512 512" viewBox="0 0 512 512" xmlns="http://www.w3.org/2000/svg"><g><path d="m260.851 20.094 9.849 4.9-9.849 4.9z"/><path d="m437.254 494.915h-11.644v-3.881c0-10.819-7.617-19.891-17.757-22.22v-210.072c11.352-3.105 19.697-13.487 19.697-25.81 0-14.797-12.032-26.829-26.829-26.829h-75.441v-80.681c0-36.532-28.479-66.466-64.429-68.989v-15.672l22.851-11.45c1.65-.825 2.668-2.474 2.668-4.318s-1.019-3.542-2.668-4.366l-25.519-12.76c-1.504-.728-3.299-.631-4.706.243-3.202 1.941-2.135 5.191-2.329 6.501v41.82c-35.901 2.523-64.38 32.457-64.38 68.989v80.681h-75.49c-14.797 0-26.829 12.032-26.829 26.829 0 12.323 8.393 22.705 19.697 25.81v210.072c-10.14 2.329-17.708 11.401-17.708 22.22v3.881h-11.692c-2.668 0-4.852 2.183-4.852 4.852 0 2.668 2.183 4.852 4.852 4.852h362.507c2.717 0 4.852-2.183 4.852-4.852 0-2.667-2.134-4.85-4.851-4.85zm-87.91-133.272c-19.358 0-35.125 15.768-35.125 35.174v71.366h-23.045v-71.366c0-19.406-15.767-35.174-35.174-35.174-19.358 0-35.125 15.768-35.125 35.174v71.366h-23.045v-71.366c0-19.406-15.768-35.174-35.174-35.174-19.358 0-35.125 15.768-35.125 35.174v71.366h-13.681v-208.423h284.3v208.422h-13.633v-71.366c0-19.406-15.767-35.173-35.173-35.173zm-66.078-216.476h32.311v60.935h-32.311zm-44.78 0h35.077v60.935h-35.077zm-42.014 0h32.311v60.935h-32.311zm219.435 349.748h-319.765v-3.881c0-7.277 5.87-13.147 13.147-13.147h293.47c7.229 0 13.148 5.87 13.148 13.147z"/><path d="m288.117 309.003c0 17.708-14.409 32.117-32.117 32.117-17.659 0-32.069-14.409-32.069-32.117s14.409-32.117 32.069-32.117c17.708 0 32.117 14.409 32.117 32.117z"/></g></svg>
