<svg width="16" height="21" viewBox="0 0 16 21" fill="none" xmlns="http://www.w3.org/2000/svg">
<path d="M1.80775 21C1.30908 21 0.883083 20.8234 0.52975 20.4703C0.176583 20.1169 0 19.6909 0 19.1923V1.80775C0 1.30258 0.175 0.875 0.525 0.525C0.875 0.175 1.30258 0 1.80775 0H11.2308C11.7294 0 12.1553 0.176583 12.5085 0.52975C12.8618 0.883083 13.0385 1.30908 13.0385 1.80775V7.7885H8.38275L7.7365 11.0115C7.12367 11.5962 6.649 12.2731 6.3125 13.0423C5.976 13.8116 5.80775 14.6277 5.80775 15.4905C5.80775 16.3532 5.97508 17.173 6.30975 17.95C6.64425 18.7268 7.12308 19.4128 7.74625 20.0077L7.9595 21H1.80775ZM10.1923 21L9.74225 18.796C9.20008 18.414 8.77417 17.9342 8.4645 17.3568C8.15483 16.7791 8 16.157 8 15.4905C8 14.8238 8.15483 14.2017 8.4645 13.624C8.77417 13.0465 9.20008 12.5668 9.74225 12.1848L10.1923 9.98075H13.8077L14.2578 12.1848C14.7999 12.5668 15.2258 13.0465 15.5355 13.624C15.8452 14.2017 16 14.8238 16 15.4905C16 16.157 15.8452 16.7791 15.5355 17.3568C15.2258 17.9342 14.7999 18.414 14.2578 18.796L13.8077 21H10.1923ZM13.775 17.2655C14.2583 16.7822 14.5 16.1905 14.5 15.4905C14.5 14.7905 14.2583 14.1988 13.775 13.7155C13.2917 13.2322 12.7 12.9905 12 12.9905C11.3 12.9905 10.7083 13.2322 10.225 13.7155C9.74167 14.1988 9.5 14.7905 9.5 15.4905C9.5 16.1905 9.74167 16.7822 10.225 17.2655C10.7083 17.7488 11.3 17.9905 12 17.9905C12.7 17.9905 13.2917 17.7488 13.775 17.2655ZM7.15 4.4C7.31917 4.23083 7.40375 4.02058 7.40375 3.76925C7.40375 3.51792 7.31917 3.30767 7.15 3.1385C6.98083 2.96933 6.77058 2.88475 6.51925 2.88475C6.26792 2.88475 6.05767 2.96933 5.8885 3.1385C5.71933 3.30767 5.63475 3.51792 5.63475 3.76925C5.63475 4.02058 5.71933 4.23083 5.8885 4.4C6.05767 4.56917 6.26792 4.65375 6.51925 4.65375C6.77058 4.65375 6.98083 4.56917 7.15 4.4Z" fill="#FF81EC"/>
</svg>
